<?xml version="1.0" encoding="UTF-8"?><svg xmlns="http://www.w3.org/2000/svg" xmlns:xlink="http://www.w3.org/1999/xlink" contentScriptType="text/ecmascript" width="810" zoomAndPan="magnify" contentStyleType="text/css" viewBox="0 0 810 809.999993" height="809.999993" preserveAspectRatio="xMidYMid meet" version="1.0"><defs><filter x="0%" y="0%" width="100%" xmlns:xlink="http://www.w3.org/1999/xlink" xlink:type="simple" xlink:actuate="onLoad" height="100%" id="filter-remove-color" xlink:show="other"><feColorMatrix values="0 0 0 0 1 0 0 0 0 1 0 0 0 0 1 0 0 0 1 0" color-interpolation-filters="sRGB"/></filter><mask id="mask-0"><g filter="url(#filter-remove-color)"><rect x="-81" width="972" fill="rgb(0%, 0%, 0%)" y="-80.999999" height="971.999992" fill-opacity="0.498"/></g></mask><clipPath id="clip-0"><path d="M 18 12 L 180 12 L 180 69.878906 L 18 69.878906 Z M 18 12 " clip-rule="nonzero"/></clipPath><clipPath id="clip-1"><rect x="0" width="195" y="0" height="70"/></clipPath></defs><path fill="rgb(94.898987%, 63.529968%, 40.779114%)" d="M 545.722656 571.34375 C 542.167969 575.433594 546.179688 585.328125 537.054688 593.175781 C 527.921875 601.019531 545.289062 592.390625 548.371094 601.25 C 551.472656 610.09375 514 626.589844 505.183594 598.007812 C 496.839844 570.910156 511.816406 557.605469 531.546875 551.402344 C 544.628906 547.308594 551.507812 564.675781 545.722656 571.34375 Z M 545.722656 571.34375 " fill-opacity="1" fill-rule="nonzero"/><path fill="rgb(94.898987%, 63.529968%, 40.779114%)" d="M 534.589844 582.261719 C 529.300781 582.261719 524.132812 579.574219 521.195312 574.726562 C 516.71875 567.339844 519.082031 557.722656 526.464844 553.246094 C 537.246094 546.710938 550.160156 535.527344 550.488281 519.351562 C 550.882812 500.164062 533.367188 477.390625 502.425781 456.867188 C 495.222656 452.089844 493.261719 442.378906 498.046875 435.175781 C 502.835938 427.976562 512.535156 426.023438 519.738281 430.800781 C 571.820312 465.355469 582.226562 498.382812 581.792969 520.003906 C 581.304688 543.714844 567.429688 565.019531 542.710938 580 C 540.144531 581.527344 537.347656 582.261719 534.589844 582.261719 Z M 534.589844 582.261719 " fill-opacity="1" fill-rule="nonzero"/><path fill="rgb(83.139038%, 83.139038%, 83.139038%)" d="M 535.171875 497.871094 C 521.816406 481.570312 507.640625 469.769531 497.257812 466.316406 L 512.210938 421.441406 C 536.652344 429.578125 558.09375 451.199219 571.769531 467.902344 Z M 535.171875 497.871094 " fill-opacity="1" fill-rule="nonzero"/><path fill="rgb(94.898987%, 63.529968%, 40.779114%)" d="M 311.496094 538.101562 C 285.902344 538.101562 261.503906 521.597656 246.847656 493.953125 C 242.804688 486.316406 245.71875 476.847656 253.355469 472.804688 C 260.980469 468.761719 270.460938 471.683594 274.503906 479.308594 C 284.164062 497.53125 299.15625 508.007812 314.035156 506.707031 C 335.164062 504.792969 354.808594 479.929688 367.941406 438.476562 C 370.542969 430.238281 379.335938 425.667969 387.585938 428.285156 C 395.820312 430.894531 400.382812 439.691406 397.773438 447.921875 C 374.332031 521.929688 337.007812 536.039062 316.855469 537.859375 C 315.066406 538.023438 313.269531 538.101562 311.496094 538.101562 Z M 311.496094 538.101562 " fill-opacity="1" fill-rule="nonzero"/><path fill="rgb(83.139038%, 83.139038%, 83.139038%)" d="M 380.335938 498.066406 L 338.804688 475.40625 C 339.957031 473.300781 341.074219 470.707031 342.3125 467.902344 C 348.632812 453.667969 359.214844 429.859375 384.144531 420.207031 L 401.226562 464.316406 C 394.527344 466.910156 389.554688 478.101562 385.5625 487.09375 C 383.726562 491.203125 382.023438 494.960938 380.335938 498.066406 Z M 380.335938 498.066406 " fill-opacity="1" fill-rule="nonzero"/><path fill="rgb(94.898987%, 63.529968%, 40.779114%)" d="M 252.179688 450.371094 C 261.414062 458.65625 276.929688 462.566406 279.710938 475.648438 C 282.136719 486.984375 275.441406 501.914062 262.730469 503.773438 C 245.863281 506.226562 219.882812 471.828125 218.609375 455.613281 C 217.695312 444.113281 235.941406 435.820312 252.179688 450.371094 Z M 252.179688 450.371094 " fill-opacity="1" fill-rule="nonzero"/><path fill="rgb(16.079712%, 16.079712%, 16.079712%)" d="M 170.363281 285.3125 C 170.363281 279.21875 176.011719 274.238281 182.90625 274.238281 L 304.757812 274.238281 C 311.660156 274.238281 317.296875 279.226562 317.296875 285.3125 L 317.296875 452.144531 C 317.296875 458.230469 311.652344 463.210938 304.757812 463.210938 L 182.90625 463.210938 C 176.011719 463.210938 170.363281 458.230469 170.363281 452.144531 Z M 170.363281 285.3125 " fill-opacity="1" fill-rule="nonzero"/><path fill="rgb(38.819885%, 38.819885%, 45.878601%)" d="M 185.378906 300.3125 C 185.378906 295.191406 189.722656 291.011719 195.046875 291.011719 L 292.617188 291.011719 C 297.9375 291.011719 302.285156 295.199219 302.285156 300.3125 L 302.285156 435.449219 C 302.285156 440.566406 297.929688 444.75 292.617188 444.75 L 195.054688 444.75 C 189.722656 444.75 185.386719 440.566406 185.386719 435.449219 L 185.386719 300.3125 Z M 185.378906 300.3125 " fill-opacity="1" fill-rule="nonzero"/><path fill="rgb(96.078491%, 96.078491%, 96.078491%)" d="M 199.671875 312.136719 L 215.527344 312.136719 L 215.527344 322.171875 L 199.671875 322.171875 Z M 199.671875 312.136719 " fill-opacity="1" fill-rule="nonzero"/><path fill="rgb(37.649536%, 79.219055%, 83.918762%)" d="M 222.925781 312.136719 L 252 312.136719 L 252 322.171875 L 222.925781 322.171875 Z M 222.925781 312.136719 " fill-opacity="1" fill-rule="nonzero"/><path fill="rgb(100%, 23.139954%, 23.139954%)" d="M 257.285156 312.136719 L 278.960938 312.136719 L 278.960938 322.171875 L 257.285156 322.171875 Z M 257.285156 312.136719 " fill-opacity="1" fill-rule="nonzero"/><path fill="rgb(96.078491%, 96.078491%, 96.078491%)" d="M 199.671875 329.042969 L 215.527344 329.042969 L 215.527344 339.078125 L 199.671875 339.078125 Z M 199.671875 329.042969 " fill-opacity="1" fill-rule="nonzero"/><path fill="rgb(37.649536%, 79.219055%, 83.918762%)" d="M 240.1875 329.042969 L 259.636719 329.042969 L 259.636719 339.078125 L 240.1875 339.078125 Z M 240.1875 329.042969 " fill-opacity="1" fill-rule="nonzero"/><path fill="rgb(100%, 23.139954%, 23.139954%)" d="M 264.914062 329.042969 L 278.960938 329.042969 L 278.960938 339.078125 L 264.914062 339.078125 Z M 264.914062 329.042969 " fill-opacity="1" fill-rule="nonzero"/><path fill="rgb(96.078491%, 96.078491%, 96.078491%)" d="M 199.671875 345.953125 L 215.527344 345.953125 L 215.527344 355.988281 L 199.671875 355.988281 Z M 199.671875 345.953125 " fill-opacity="1" fill-rule="nonzero"/><path fill="rgb(100%, 23.139954%, 23.139954%)" d="M 222.925781 345.953125 L 246.710938 345.953125 L 246.710938 355.988281 L 222.925781 355.988281 Z M 222.925781 345.953125 " fill-opacity="1" fill-rule="nonzero"/><path fill="rgb(37.649536%, 79.219055%, 83.918762%)" d="M 252 345.953125 L 288 345.953125 L 288 355.988281 L 252 355.988281 Z M 252 345.953125 " fill-opacity="1" fill-rule="nonzero"/><path fill="rgb(96.078491%, 96.078491%, 96.078491%)" d="M 199.671875 362.867188 L 215.527344 362.867188 L 215.527344 372.902344 L 199.671875 372.902344 Z M 199.671875 362.867188 " fill-opacity="1" fill-rule="nonzero"/><path fill="rgb(37.649536%, 79.219055%, 83.918762%)" d="M 235.785156 362.867188 L 252 362.867188 L 252 372.902344 L 235.785156 372.902344 Z M 235.785156 362.867188 " fill-opacity="1" fill-rule="nonzero"/><path fill="rgb(100%, 23.139954%, 23.139954%)" d="M 257.285156 362.867188 L 284.15625 362.867188 L 284.15625 372.902344 L 257.285156 372.902344 Z M 257.285156 362.867188 " fill-opacity="1" fill-rule="nonzero"/><path fill="rgb(96.078491%, 96.078491%, 96.078491%)" d="M 199.671875 379.769531 L 215.527344 379.769531 L 215.527344 389.808594 L 199.671875 389.808594 Z M 199.671875 379.769531 " fill-opacity="1" fill-rule="nonzero"/><path fill="rgb(37.649536%, 79.219055%, 83.918762%)" d="M 222.925781 379.769531 L 261.273438 379.769531 L 261.273438 389.808594 L 222.925781 389.808594 Z M 222.925781 379.769531 " fill-opacity="1" fill-rule="nonzero"/><path fill="rgb(100%, 23.139954%, 23.139954%)" d="M 266.5625 379.769531 L 278.960938 379.769531 L 278.960938 389.808594 L 266.5625 389.808594 Z M 266.5625 379.769531 " fill-opacity="1" fill-rule="nonzero"/><path fill="rgb(96.078491%, 96.078491%, 96.078491%)" d="M 199.671875 396.683594 L 215.527344 396.683594 L 215.527344 406.71875 L 199.671875 406.71875 Z M 199.671875 396.683594 " fill-opacity="1" fill-rule="nonzero"/><path fill="rgb(100%, 23.139954%, 23.139954%)" d="M 234.136719 396.683594 L 247.265625 396.683594 L 247.265625 406.71875 L 234.136719 406.71875 Z M 234.136719 396.683594 " fill-opacity="1" fill-rule="nonzero"/><path fill="rgb(100%, 23.139954%, 23.139954%)" d="M 252.550781 396.683594 L 266.007812 396.683594 L 266.007812 406.71875 L 252.550781 406.71875 Z M 252.550781 396.683594 " fill-opacity="1" fill-rule="nonzero"/><path fill="rgb(96.078491%, 96.078491%, 96.078491%)" d="M 199.671875 413.585938 L 215.527344 413.585938 L 215.527344 423.632812 L 199.671875 423.632812 Z M 199.671875 413.585938 " fill-opacity="1" fill-rule="nonzero"/><path fill="rgb(37.649536%, 79.219055%, 83.918762%)" d="M 247.601562 413.585938 L 259.964844 413.585938 L 259.964844 423.632812 L 247.601562 423.632812 Z M 247.601562 413.585938 " fill-opacity="1" fill-rule="nonzero"/><path fill="rgb(100%, 23.139954%, 23.139954%)" d="M 265.246094 413.585938 L 286.914062 413.585938 L 286.914062 423.632812 L 265.246094 423.632812 Z M 265.246094 413.585938 " fill-opacity="1" fill-rule="nonzero"/><path fill="rgb(100%, 100%, 100%)" d="M 182.90625 274.238281 L 304.757812 274.238281 C 311.660156 274.238281 317.296875 279.226562 317.296875 285.3125 L 317.296875 404.984375 C 278.734375 387.675781 178.25 362.757812 170.363281 361.550781 L 170.363281 285.3125 C 170.363281 279.21875 176.011719 274.238281 182.90625 274.238281 Z M 182.90625 274.238281 " fill-opacity="0.2" fill-rule="nonzero"/><path fill="rgb(94.898987%, 63.529968%, 40.779114%)" d="M 278.339844 453.691406 C 268.453125 456.621094 262.457031 471.324219 263.976562 480.859375 C 264.78125 486.039062 267.796875 491.375 273.699219 489.292969 C 280.972656 486.703125 279.679688 475.273438 283.460938 470.378906 C 285.824219 467.320312 293.6875 461.949219 293.390625 457.71875 C 292.910156 451.035156 283.066406 452.292969 278.339844 453.691406 Z M 278.339844 453.691406 " fill-opacity="1" fill-rule="nonzero"/><path fill="rgb(100%, 79.60968%, 61.959839%)" d="M 406.03125 771.667969 C 395.207031 771.667969 386.363281 762.964844 386.214844 752.113281 C 385.78125 718.3125 389.058594 675.871094 391.953125 638.429688 L 393.015625 624.628906 C 393.84375 613.726562 403.398438 605.570312 414.289062 606.386719 C 425.203125 607.214844 433.378906 616.730469 432.546875 627.640625 L 431.480469 641.488281 C 428.644531 678.101562 425.4375 719.589844 425.847656 751.605469 C 425.996094 762.546875 417.234375 771.527344 406.285156 771.675781 C 406.203125 771.667969 406.125 771.667969 406.03125 771.667969 Z M 406.03125 771.667969 " fill-opacity="1" fill-rule="nonzero"/><path fill="rgb(100%, 79.60968%, 61.959839%)" d="M 494.910156 771.667969 C 494.816406 771.667969 494.742188 771.667969 494.65625 771.667969 C 483.710938 771.527344 474.949219 762.546875 475.085938 751.605469 C 475.496094 719.722656 472.445312 680.175781 469.492188 641.945312 L 468.394531 627.625 C 467.570312 616.714844 475.746094 607.199219 486.660156 606.378906 C 497.367188 605.515625 507.097656 613.71875 507.925781 624.628906 L 509.019531 638.902344 C 512.03125 678.007812 515.144531 718.4375 514.71875 752.101562 C 514.589844 762.964844 505.734375 771.667969 494.910156 771.667969 Z M 494.910156 771.667969 " fill-opacity="1" fill-rule="nonzero"/><path fill="rgb(16.079712%, 16.079712%, 16.079712%)" d="M 384.222656 731.167969 C 382.410156 729.132812 383.804688 725.507812 383.945312 723.253906 C 384.078125 720.976562 381.054688 719.257812 379.816406 717.886719 C 377.058594 714.820312 379.863281 712.0625 382.132812 710.382812 C 386.421875 707.214844 382.03125 704.382812 380.855469 699.929688 C 376.097656 682.003906 385.136719 586.761719 385.136719 566.730469 C 385.136719 528.929688 513.347656 533.375 513.347656 566.007812 C 513.347656 573.296875 520.699219 684.738281 518.253906 691.691406 C 516.128906 697.738281 520.484375 698.039062 521.328125 703.121094 C 522.085938 707.640625 514.199219 711.089844 516.8125 714.171875 C 520.628906 718.699219 514.789062 722.773438 515.511719 726.3125 C 518.097656 739.003906 474.265625 739.175781 471.625 731.40625 C 470.332031 727.589844 471.027344 724.796875 471.359375 721.527344 C 471.761719 717.632812 464.417969 717.484375 467.726562 707.246094 C 469.238281 702.585938 465.347656 701.8125 463.511719 698.511719 C 461.761719 695.359375 461.847656 690.945312 461.414062 687.285156 C 460.320312 678.125 455.710938 636.328125 454.324219 625.84375 C 453.828125 622.050781 448.304688 622.050781 447.785156 625.84375 C 445.160156 645.988281 441.914062 666.042969 438.984375 686.136719 C 437.839844 693.984375 437.351562 701.386719 432.726562 708.191406 C 430.953125 710.800781 429.433594 711.964844 430.605469 714.976562 C 431.464844 717.183594 433.097656 717.941406 432.449219 720.691406 C 431.804688 723.386719 427.644531 724.664062 427.921875 728.613281 C 428.132812 731.46875 427.605469 733.46875 421.703125 735.550781 C 411.757812 739.042969 389.5625 737.175781 384.222656 731.167969 Z M 384.222656 731.167969 " fill-opacity="1" fill-rule="nonzero"/><path fill="rgb(30.979919%, 30.979919%, 30.979919%)" d="M 440.527344 592.328125 C 437.886719 592.328125 435.625 590.332031 435.34375 587.652344 C 434.5 579.4375 435.097656 571.1875 437.113281 563.128906 C 437.808594 560.332031 440.675781 558.652344 443.433594 559.339844 C 446.230469 560.039062 447.925781 562.871094 447.230469 565.660156 C 445.5 572.542969 444.996094 579.574219 445.726562 586.578125 C 446.019531 589.441406 443.945312 592.003906 441.070312 592.300781 C 440.890625 592.320312 440.707031 592.328125 440.527344 592.328125 Z M 440.527344 592.328125 " fill-opacity="1" fill-rule="nonzero"/><path fill="rgb(30.979919%, 30.979919%, 30.979919%)" d="M 459.097656 592.328125 C 458.925781 592.328125 458.742188 592.320312 458.570312 592.308594 C 455.703125 592.019531 453.613281 589.464844 453.898438 586.597656 C 454.613281 579.574219 454.09375 572.527344 452.386719 565.660156 C 451.691406 562.871094 453.394531 560.039062 456.183594 559.347656 C 458.957031 558.660156 461.816406 560.347656 462.503906 563.144531 C 464.511719 571.175781 465.109375 579.421875 464.28125 587.644531 C 464 590.332031 461.738281 592.328125 459.097656 592.328125 Z M 459.097656 592.328125 " fill-opacity="1" fill-rule="nonzero"/><path fill="rgb(72.158813%, 72.158813%, 72.158813%)" d="M 441.148438 598.175781 C 439.390625 598.175781 437.816406 596.9375 437.46875 595.140625 C 437.46875 595.140625 437.019531 592.871094 436.816406 590.859375 C 436.609375 588.789062 438.109375 586.949219 440.179688 586.738281 C 442.214844 586.546875 444.082031 588.03125 444.292969 590.101562 C 444.464844 591.78125 444.828125 593.660156 444.835938 593.707031 C 445.238281 595.746094 443.90625 597.71875 441.867188 598.105469 C 441.636719 598.152344 441.386719 598.175781 441.148438 598.175781 Z M 441.148438 598.175781 " fill-opacity="1" fill-rule="nonzero"/><path fill="rgb(72.158813%, 72.158813%, 72.158813%)" d="M 458.324219 598.175781 C 458.082031 598.175781 457.835938 598.152344 457.59375 598.105469 C 455.558594 597.710938 454.222656 595.738281 454.628906 593.707031 C 454.636719 593.660156 455 591.78125 455.167969 590.101562 C 455.371094 588.03125 457.230469 586.539062 459.28125 586.738281 C 461.351562 586.949219 462.855469 588.796875 462.644531 590.859375 C 462.445312 592.871094 461.996094 595.140625 461.996094 595.140625 C 461.652344 596.9375 460.074219 598.175781 458.324219 598.175781 Z M 458.324219 598.175781 " fill-opacity="1" fill-rule="nonzero"/><path fill="rgb(83.139038%, 83.139038%, 83.139038%)" d="M 368.667969 433.875 C 373.867188 443.964844 378.117188 457.992188 378.132812 475.832031 C 378.179688 512.832031 383.277344 538.535156 381.179688 558.984375 C 379.34375 576.898438 520.1875 578.222656 517.5 559.308594 C 514.617188 539.167969 519.554688 513.265625 519.777344 476.171875 C 519.878906 461.738281 523.503906 444.988281 527.039062 435.222656 C 527.972656 432.644531 519.460938 410.085938 449.382812 409.730469 C 377.160156 409.359375 367.328125 431.28125 368.667969 433.875 Z M 368.667969 433.875 " fill-opacity="1" fill-rule="nonzero"/><path fill="rgb(96.078491%, 96.078491%, 96.078491%)" d="M 449.058594 466.292969 C 449.058594 466.292969 512.796875 440.070312 496.839844 416.617188 C 482.492188 395.523438 405.921875 395.445312 398.765625 420.574219 C 392.714844 441.78125 449.058594 466.292969 449.058594 466.292969 Z M 449.058594 466.292969 " fill-opacity="1" fill-rule="nonzero"/><path fill="rgb(87.838745%, 53.329468%, 31.759644%)" d="M 408.097656 404.371094 C 409.726562 378.71875 432.609375 368.953125 448.863281 368.992188 C 465.109375 368.953125 487.992188 378.726562 489.621094 404.371094 C 490.386719 416.3125 488.660156 423.238281 482.664062 429.851562 C 473.058594 440.4375 461.179688 449.03125 448.871094 449.277344 C 436.5625 449.03125 424.679688 440.4375 415.078125 429.851562 C 409.058594 423.230469 407.332031 416.3125 408.097656 404.371094 Z M 408.097656 404.371094 " fill-opacity="1" fill-rule="nonzero"/><path fill="rgb(100%, 23.139954%, 23.139954%)" d="M 428.441406 490.917969 C 427.496094 490.382812 426.34375 490.390625 425.398438 490.933594 L 397.90625 507.101562 C 396.984375 507.644531 396.425781 508.628906 396.425781 509.703125 L 396.425781 515.945312 C 396.425781 517.023438 396.984375 518.011719 397.90625 518.554688 L 425.398438 534.714844 C 425.886719 534.988281 426.414062 535.132812 426.941406 535.132812 C 427.453125 535.132812 427.96875 534.996094 428.433594 534.730469 C 429.378906 534.195312 429.953125 533.191406 429.953125 532.105469 L 429.953125 524.425781 C 429.953125 523.324219 429.355469 522.316406 428.394531 521.777344 L 412.242188 512.824219 L 428.394531 503.871094 C 429.355469 503.347656 429.953125 502.332031 429.953125 501.230469 L 429.953125 493.550781 C 429.96875 492.457031 429.394531 491.453125 428.441406 490.917969 Z M 428.441406 490.917969 " fill-opacity="1" fill-rule="nonzero"/><path fill="rgb(38.819885%, 38.819885%, 45.878601%)" d="M 455.992188 483.53125 L 450.203125 483.53125 C 448.800781 483.53125 447.578125 484.488281 447.253906 485.859375 L 434.996094 538.410156 C 434.789062 539.308594 435.003906 540.253906 435.570312 540.980469 C 436.144531 541.699219 437.019531 542.121094 437.949219 542.121094 L 443.726562 542.121094 C 445.128906 542.121094 446.355469 541.144531 446.679688 539.78125 L 458.933594 487.238281 C 459.144531 486.332031 458.925781 485.386719 458.359375 484.667969 C 457.796875 483.949219 456.914062 483.53125 455.992188 483.53125 Z M 455.992188 483.53125 " fill-opacity="1" fill-rule="nonzero"/><path fill="rgb(37.649536%, 79.219055%, 83.918762%)" d="M 496.011719 506.871094 L 468.507812 490.917969 C 467.570312 490.382812 466.425781 490.382812 465.480469 490.917969 C 464.550781 491.453125 463.96875 492.449219 463.96875 493.535156 L 463.96875 501.214844 C 463.96875 502.324219 464.582031 503.339844 465.550781 503.871094 L 482.042969 512.808594 L 465.550781 521.753906 C 464.582031 522.28125 463.96875 523.292969 463.96875 524.410156 L 463.96875 532.089844 C 463.96875 533.175781 464.550781 534.175781 465.480469 534.707031 C 465.953125 534.980469 466.472656 535.117188 466.984375 535.117188 C 467.503906 535.117188 468.042969 534.980469 468.5 534.707031 L 496.003906 518.757812 C 496.933594 518.222656 497.507812 517.222656 497.507812 516.148438 L 497.507812 509.472656 C 497.515625 508.410156 496.941406 507.410156 496.011719 506.871094 Z M 496.011719 506.871094 " fill-opacity="1" fill-rule="nonzero"/><path fill="rgb(16.859436%, 14.118958%, 12.159729%)" d="M 287.332031 72.265625 C 299.519531 46.703125 323.488281 26.691406 354.792969 18.65625 C 426.019531 0.363281 547.257812 8.9375 590.414062 67.574219 C 602.601562 84.113281 609.308594 104.464844 605.164062 124.714844 C 600.742188 146.289062 585.859375 161.0625 561.96875 155.054688 C 549.542969 151.933594 541.609375 153.433594 529.484375 158.027344 C 516.726562 162.851562 504.964844 170.222656 491.820312 173.980469 C 470.765625 179.988281 448.3125 178.253906 427.257812 183.597656 C 413.351562 187.121094 400.578125 197.007812 389.539062 205.480469 C 380.414062 212.472656 371.046875 219.03125 364.476562 228.441406 C 360.015625 234.824219 355.574219 242.636719 348.371094 246.238281 C 343.171875 248.824219 331.652344 253.578125 327.523438 247.691406 C 324.984375 244.09375 325.5625 233.542969 325.039062 229.199219 C 324.191406 222.230469 323.9375 215.191406 323.347656 208.199219 C 321.863281 190.265625 317.476562 172.933594 315.035156 155.222656 C 310.210938 161.363281 310.488281 170.488281 311.835938 177.78125 C 298.503906 169.804688 287.535156 153.605469 284.769531 146.140625 C 275.109375 120.113281 276.898438 94.15625 287.332031 72.265625 Z M 287.332031 72.265625 " fill-opacity="1" fill-rule="nonzero"/><path fill="rgb(94.898987%, 63.529968%, 40.779114%)" d="M 582.304688 273.132812 C 572.851562 342.476562 519.351562 418.550781 438.753906 412.828125 C 356.542969 406.96875 315.609375 305.027344 326.246094 219.746094 C 337.796875 127.035156 381.714844 49.746094 477.875 68.484375 C 546.527344 81.867188 594.90625 180.554688 582.304688 273.132812 Z M 582.304688 273.132812 " fill-opacity="1" fill-rule="nonzero"/><path fill="rgb(65.098572%, 20.388794%, 9.01947%)" d="M 529.972656 146.589844 C 539.671875 151.617188 565.308594 163.945312 578.414062 143.335938 C 584.605469 133.617188 580.027344 118.9375 576.160156 107.847656 C 571.449219 94.304688 555.972656 86.714844 543.367188 81.179688 C 520.4375 71.101562 493.71875 72.441406 469.097656 72.859375 C 441.371094 73.339844 413.917969 77.609375 387.367188 85.320312 C 369.835938 90.417969 336.867188 94.953125 330.792969 114.730469 C 323.101562 139.78125 349.914062 143.003906 368.472656 143.042969 C 413.152344 143.128906 508.894531 135.679688 529.972656 146.589844 Z M 529.972656 146.589844 " fill-opacity="0.298" fill-rule="nonzero"/><path fill="rgb(94.898987%, 63.529968%, 40.779114%)" d="M 598.90625 302.929688 C 590.074219 306.097656 580.691406 306.523438 571.667969 305.886719 C 571.496094 305.609375 571.3125 305.335938 571.125 305.050781 C 567.089844 298.648438 572.734375 262.792969 574.804688 256.03125 C 579.996094 239.027344 590.074219 230.105469 606.257812 234.566406 C 639.972656 243.851562 626.445312 293.046875 598.90625 302.929688 Z M 598.90625 302.929688 " fill-opacity="1" fill-rule="nonzero"/><path fill="rgb(65.098572%, 20.388794%, 9.01947%)" d="M 585.851562 290.777344 C 573.574219 283.042969 585.175781 256.9375 594.425781 252.6875 C 602.003906 249.195312 620.90625 255.484375 612.019531 270.289062 C 607.332031 256.566406 598.960938 265.566406 600.238281 275.308594 C 601.089844 281.859375 608.140625 281.945312 601.144531 290.351562 C 597.363281 294.890625 589.71875 293.203125 585.851562 290.777344 Z M 585.851562 290.777344 " fill-opacity="0.298" fill-rule="nonzero"/><path fill="rgb(16.859436%, 14.118958%, 12.159729%)" d="M 369.09375 39.53125 C 384.992188 31.84375 404.433594 28.9375 420.96875 29.03125 C 434.796875 29.101562 448.445312 26.128906 462.40625 26.21875 C 477.675781 26.3125 492.914062 28.046875 507.949219 30.574219 C 525.511719 33.515625 544.164062 37.828125 559.875 46.339844 C 573.558594 53.765625 578.996094 71.21875 585.300781 84.460938 C 588.152344 90.441406 587.78125 98.609375 588.167969 105.027344 C 588.828125 116.304688 589.152344 128.316406 588.617188 139.582031 C 587.664062 159.839844 560.402344 162.953125 548.929688 148.441406 C 539.105469 136.019531 525.308594 132.8125 509.589844 132.242188 C 483.539062 131.289062 381.503906 126.480469 357.550781 134.679688 C 344.414062 139.179688 326.957031 145.992188 324.324219 125.09375 C 322.890625 113.6875 327.476562 98.855469 331.265625 88 C 335.898438 74.726562 341.972656 61.019531 352.34375 50.96875 C 357.109375 46.324219 362.835938 42.558594 369.09375 39.53125 Z M 369.09375 39.53125 " fill-opacity="1" fill-rule="nonzero"/><path fill="rgb(34.118652%, 26.669312%, 22.749329%)" d="M 579.257812 110.597656 C 583.753906 94.382812 574.496094 61.710938 543.957031 47.042969 C 514.394531 32.847656 485.011719 24.207031 452.527344 22.628906 C 414.515625 20.769531 368.691406 21.890625 334.441406 41.328125 C 308.085938 56.289062 292.765625 82.238281 290.316406 111.519531 C 310.582031 105.363281 336.394531 107.617188 357.597656 106.949219 C 350.050781 99.988281 341.894531 97.757812 333.078125 92.910156 C 359.765625 93.15625 388.253906 96.835938 414.019531 96.597656 C 407.164062 86.761719 394.101562 84.988281 385.890625 77.113281 C 412.585938 75.230469 440.488281 89.992188 466.378906 94.25 C 467.191406 85.5625 455.410156 77.957031 450.179688 72.054688 C 465.804688 71.878906 525.667969 98.578125 537.945312 105.625 C 534.984375 98.207031 520.453125 82.578125 518.871094 74.6875 C 534.140625 76.292969 567.4375 93.226562 579.257812 110.597656 Z M 579.257812 110.597656 " fill-opacity="1" fill-rule="nonzero"/><path fill="rgb(74.899292%, 47.44873%, 36.079407%)" d="M 554.980469 153.730469 C 562.726562 196.972656 568.816406 217.949219 563.230469 257.015625 C 563.230469 257.015625 583.0625 235.332031 599.160156 233.4375 C 601.398438 227.433594 605.132812 160.574219 595.722656 145.527344 C 580.722656 148.9375 570.125 153.542969 554.980469 153.730469 Z M 554.980469 153.730469 " fill-opacity="1" fill-rule="nonzero"/><path fill="rgb(96.859741%, 50.979614%, 29.019165%)" d="M 331.089844 261.105469 C 330.074219 262.578125 329.304688 264.273438 328.792969 266.222656 C 323.945312 285.125 366.769531 278.660156 371.835938 270.4375 C 381.296875 254.980469 366.957031 251.246094 356.179688 251.464844 C 347.9375 251.617188 336.425781 253.285156 331.089844 261.105469 Z M 331.089844 261.105469 " fill-opacity="1" fill-rule="nonzero"/><path fill="rgb(96.859741%, 50.979614%, 29.019165%)" d="M 508.539062 258.023438 C 507.136719 259.261719 505.894531 260.78125 504.882812 262.628906 C 495.035156 280.574219 540.246094 285.125 547.527344 278.070312 C 561.175781 264.84375 547.558594 257.316406 536.574219 254.738281 C 528.152344 252.757812 515.980469 251.457031 508.539062 258.023438 Z M 508.539062 258.023438 " fill-opacity="1" fill-rule="nonzero"/><path fill="rgb(12.159729%, 10.198975%, 9.01947%)" d="M 515.339844 248.101562 C 520.585938 245.5625 527.238281 244.96875 532.863281 246.609375 C 544.933594 236.363281 533.800781 204.984375 516.105469 212.597656 C 502.9375 218.273438 503.464844 241.960938 515.339844 248.101562 Z M 515.339844 248.101562 " fill-opacity="1" fill-rule="nonzero"/><path fill="rgb(65.098572%, 20.388794%, 9.01947%)" d="M 409.921875 268.335938 C 414.320312 262.917969 420.539062 268.925781 432.015625 269.050781 C 442.363281 269.183594 446.4375 264.464844 453.683594 268.769531 C 460.917969 273.054688 450.574219 286.835938 432.261719 286.171875 C 414.042969 285.519531 406.117188 273.007812 409.921875 268.335938 Z M 409.921875 268.335938 " fill-opacity="0.298" fill-rule="nonzero"/><path fill="rgb(100%, 87.449646%, 76.078796%)" d="M 434.710938 230.207031 C 454.148438 228.519531 455.609375 269.5625 451.164062 273.078125 C 440.28125 281.671875 417.511719 275.585938 410.886719 268.679688 C 408.269531 265.945312 416.171875 231.816406 434.710938 230.207031 Z M 434.710938 230.207031 " fill-opacity="1" fill-rule="nonzero"/><path fill="rgb(12.159729%, 10.198975%, 9.01947%)" d="M 345.738281 211.40625 C 336.085938 217.199219 336.175781 237.113281 343.382812 245.097656 C 347.96875 242.976562 357.417969 242.015625 362.113281 245.128906 C 376.957031 235.316406 363.726562 200.609375 345.738281 211.40625 Z M 345.738281 211.40625 " fill-opacity="1" fill-rule="nonzero"/><path fill="rgb(65.879822%, 53.329468%, 53.329468%)" d="M 524.621094 220.28125 C 518.230469 218.128906 514.269531 227.929688 519.320312 231.601562 C 526.332031 236.679688 531.792969 222.726562 524.621094 220.28125 Z M 524.621094 220.28125 " fill-opacity="1" fill-rule="nonzero"/><path fill="rgb(65.879822%, 53.329468%, 53.329468%)" d="M 354.988281 217.398438 C 348.6875 216.144531 346.179688 225.949219 351.414062 228.796875 C 358.683594 232.746094 362.066406 218.824219 354.988281 217.398438 Z M 354.988281 217.398438 " fill-opacity="1" fill-rule="nonzero"/><g mask="url(#mask-0)"><g transform="matrix(1, 0, 0, 1, 340, 281)"><g id="source-5" clip-path="url(#clip-1)"><path fill="rgb(58.039856%, 6.669617%, 4.708862%)" d="M 168.242188 5.929688 C 158.148438 24.925781 182.070312 33.917969 191.894531 15.324219 C 183.480469 19.335938 172.273438 15.425781 168.242188 5.929688 Z M 168.242188 5.929688 " fill-opacity="1" fill-rule="nonzero"/><path fill="rgb(58.039856%, 6.669617%, 4.708862%)" d="M 33.804688 2.730469 C 39.070312 22.394531 13.175781 29.199219 8.085938 9.964844 C 15.390625 14.648438 27.46875 11.761719 33.804688 2.730469 Z M 33.804688 2.730469 " fill-opacity="1" fill-rule="nonzero"/><g clip-path="url(#clip-0)"><path fill="rgb(58.039856%, 6.669617%, 4.708862%)" d="M 103.199219 69.429688 C 138.640625 68.292969 167.113281 49.265625 179.082031 24.097656 C 180.320312 21.496094 178.988281 18.628906 176.097656 17.691406 C 173.222656 16.757812 169.871094 18.105469 168.628906 20.714844 C 158.195312 42.652344 132.683594 59.269531 100.800781 59.464844 C 67.65625 59.679688 39.195312 42.25 29.714844 15.71875 C 28.800781 13.132812 25.609375 11.824219 22.617188 12.800781 C 19.628906 13.765625 17.9375 16.664062 18.867188 19.25 C 29.816406 49.875 62.082031 69.738281 100.203125 69.484375 C 101.203125 69.476562 102.203125 69.453125 103.199219 69.429688 Z M 103.199219 69.429688 " fill-opacity="1" fill-rule="nonzero"/></g></g></g></g><path fill="rgb(16.859436%, 14.118958%, 12.159729%)" d="M 473.035156 176.070312 C 465.457031 177.542969 461.375 183.210938 465.675781 191.015625 C 469.066406 197.203125 485.574219 192.261719 507.886719 190.441406 C 532.097656 188.476562 547.707031 189.746094 549.261719 185.214844 C 550.835938 180.695312 536.265625 174.210938 514.734375 172.917969 C 500.417969 172.066406 487.101562 173.320312 473.035156 176.070312 Z M 473.035156 176.070312 " fill-opacity="1" fill-rule="nonzero"/><path fill="rgb(16.859436%, 14.118958%, 12.159729%)" d="M 391.613281 175.945312 C 398.414062 177.246094 402.28125 182.808594 398.8125 190.691406 C 396.070312 196.941406 381.1875 192.394531 361.277344 191.085938 C 339.671875 189.667969 325.875 191.292969 324.277344 186.8125 C 322.691406 182.328125 335.363281 175.535156 354.4375 173.753906 C 367.101562 172.578125 379.003906 173.523438 391.613281 175.945312 Z M 391.613281 175.945312 " fill-opacity="1" fill-rule="nonzero"/><path fill="rgb(70.979309%, 30.198669%, 14.898682%)" d="M 394.316406 262.359375 C 397.949219 259.554688 401.074219 256.132812 403.328125 252.136719 C 408.023438 243.804688 408.007812 233.769531 404.574219 224.972656 C 399.863281 212.859375 386.410156 212.21875 375.269531 211.535156 C 361.757812 210.714844 348.132812 211.296875 334.699219 210.390625 C 320.746094 209.460938 319.058594 186.46875 339.476562 187.027344 C 352.300781 187.375 365.105469 189.042969 377.59375 191.992188 C 388.253906 194.515625 400.730469 195.484375 410.601562 200.292969 C 419.710938 204.738281 423.570312 207.6875 434.40625 206.96875 C 453.820312 205.683594 469.878906 193.183594 489.226562 190.683594 C 509.375 188.082031 529.980469 185.183594 550.03125 190.179688 C 555.242188 191.472656 571.046875 197.007812 560.613281 202.832031 C 550.433594 208.507812 534.945312 207.175781 523.652344 207.898438 C 518.429688 208.230469 513.195312 208.484375 508.003906 209.097656 C 489.582031 211.25 461.097656 209.40625 463.15625 232.414062 C 464.574219 248.210938 475.164062 264.195312 488.109375 266.851562 C 500.503906 269.398438 513.734375 270.171875 526.214844 269.808594 C 535.777344 269.53125 544.957031 267.453125 553.5625 263.203125 C 556.011719 262.003906 563.292969 257.101562 565.777344 260.386719 C 569.992188 265.953125 555.210938 275.75 551.316406 277.621094 C 542.429688 281.898438 532.910156 283.359375 523.171875 284.636719 C 499.164062 287.804688 474.328125 287.148438 460.183594 265.363281 C 451.976562 252.726562 447.65625 237.734375 440.023438 224.753906 C 427.527344 203.5 422.625 232.894531 419.160156 245.789062 C 417.21875 253.035156 414.304688 260.082031 410.050781 266.253906 C 402.539062 277.171875 387.382812 283.359375 374.601562 284.273438 C 366.714844 284.839844 358.644531 284.628906 351.175781 281.75 C 346.667969 280.015625 344.730469 274.890625 350.035156 272.734375 C 353.242188 271.433594 358.433594 272.195312 361.820312 271.96875 C 366.761719 271.652344 371.820312 271.457031 376.679688 270.421875 C 382.898438 269.105469 389.128906 266.371094 394.316406 262.359375 Z M 394.316406 262.359375 " fill-opacity="0.298" fill-rule="nonzero"/><path fill="rgb(22.749329%, 22.749329%, 29.019165%)" d="M 604.054688 188.027344 C 600.414062 184.695312 586.710938 188.660156 570.839844 187.609375 C 548.441406 186.121094 434.8125 174.902344 442.402344 223.199219 C 445.484375 242.90625 453.882812 263.054688 474.808594 274.484375 C 491.695312 283.710938 547.078125 281.261719 564.515625 266.820312 C 585.371094 249.519531 585.734375 221 587.160156 209.996094 C 594.613281 209.640625 599.796875 206.242188 599.796875 206.242188 C 599.796875 206.242188 608.789062 192.347656 604.054688 188.027344 Z M 563.121094 254.46875 C 548.566406 271.242188 494.648438 275.789062 474.109375 261.515625 C 458.523438 250.691406 448.59375 217.785156 457.292969 211.605469 C 475.242188 198.851562 551.035156 196.792969 570.746094 209.59375 C 577.183594 213.78125 574.332031 241.519531 563.121094 254.46875 Z M 563.121094 254.46875 " fill-opacity="1" fill-rule="nonzero"/><path fill="rgb(22.749329%, 22.749329%, 29.019165%)" d="M 281.074219 205.707031 C 281.074219 205.707031 285.746094 209.160156 292.492188 209.585938 C 293.777344 220.589844 294.128906 249.109375 313.007812 266.617188 C 328.765625 281.214844 378.808594 284.203125 394.070312 275.152344 C 412.957031 263.929688 420.511719 243.867188 423.285156 224.191406 C 430.09375 175.984375 327.4375 186.097656 307.21875 187.367188 C 292.863281 188.265625 280.476562 184.171875 277.199219 187.453125 C 272.917969 191.734375 281.074219 205.707031 281.074219 205.707031 Z M 307.328125 209.335938 C 325.113281 196.730469 393.605469 199.535156 409.828125 212.449219 C 417.699219 218.714844 408.734375 251.511719 394.675781 262.179688 C 376.128906 276.25 327.40625 271.179688 314.246094 254.265625 C 304.105469 241.226562 301.503906 213.464844 307.328125 209.335938 Z M 307.328125 209.335938 " fill-opacity="1" fill-rule="nonzero"/><path fill="rgb(100%, 100%, 100%)" d="M 396.238281 208.980469 C 383.542969 204.421875 319.40625 202.71875 312.472656 209.710938 C 307.507812 214.710938 326.230469 221.332031 334.820312 222.386719 C 351.152344 224.390625 368.414062 224.390625 383.441406 221.214844 C 387.765625 220.304688 407.75 213.125 396.238281 208.980469 Z M 396.238281 208.980469 " fill-opacity="0.298" fill-rule="nonzero"/><path fill="rgb(100%, 100%, 100%)" d="M 346.0625 209.253906 C 333 207.992188 310.644531 211.027344 313.269531 214.929688 C 315.941406 218.910156 351.828125 219.800781 354.777344 214.214844 C 356.289062 211.390625 352.207031 209.847656 346.0625 209.253906 Z M 346.0625 209.253906 " fill-opacity="1" fill-rule="nonzero"/><path fill="rgb(100%, 100%, 100%)" d="M 385.882812 250.039062 C 377.714844 250.582031 364.335938 255.613281 366.359375 258.410156 C 368.449219 261.253906 390.582031 257.722656 391.777344 252.941406 C 392.398438 250.519531 389.707031 249.777344 385.882812 250.039062 Z M 385.882812 250.039062 " fill-opacity="0.698" fill-rule="nonzero"/><path fill="rgb(100%, 100%, 100%)" d="M 550.898438 250.0625 C 542.351562 251.132812 528.625 257.015625 530.972656 259.679688 C 533.359375 262.375 556.398438 257.441406 557.3125 252.601562 C 557.792969 250.132812 554.917969 249.566406 550.898438 250.0625 Z M 550.898438 250.0625 " fill-opacity="0.698" fill-rule="nonzero"/><path fill="rgb(100%, 100%, 100%)" d="M 557.832031 208.144531 C 550.789062 201.664062 480.144531 204.519531 465.78125 209.082031 C 452.792969 213.234375 474.15625 219.628906 478.835938 220.402344 C 495.121094 223.121094 514.070312 222.78125 532.203125 220.566406 C 541.734375 219.40625 562.882812 212.785156 557.832031 208.144531 Z M 557.832031 208.144531 " fill-opacity="0.298" fill-rule="nonzero"/><path fill="rgb(100%, 100%, 100%)" d="M 496.554688 206.054688 C 482.742188 205.125 459.253906 208.742188 462.148438 212.574219 C 465.085938 216.492188 502.929688 216.453125 505.886719 210.792969 C 507.382812 207.914062 503.03125 206.496094 496.554688 206.054688 Z M 496.554688 206.054688 " fill-opacity="1" fill-rule="nonzero"/><path fill="rgb(22.749329%, 22.749329%, 29.019165%)" d="M 458.507812 195.769531 C 438.792969 201.75 423.664062 200.480469 407.566406 195.988281 C 391.941406 191.636719 408.0625 203.777344 410.957031 206.984375 C 413.832031 210.199219 415.335938 245.515625 421.941406 231.910156 C 428.550781 218.304688 438.738281 218.636719 444.457031 233.148438 C 450.164062 247.660156 447.199219 221.679688 448.816406 213.597656 C 450.4375 205.511719 474.25 191 458.507812 195.769531 Z M 458.507812 195.769531 " fill-opacity="1" fill-rule="nonzero"/><path fill="rgb(75.689697%, 77.249146%, 78.819275%)" d="M 459.679688 201.933594 C 477.054688 188.625 506.253906 186.554688 563.222656 192.070312 C 520.242188 192.765625 485.925781 192.820312 459.679688 201.933594 Z M 459.679688 201.933594 " fill-opacity="1" fill-rule="nonzero"/><path fill="rgb(75.689697%, 77.249146%, 78.819275%)" d="M 402.785156 200.742188 C 387.878906 188.328125 363.484375 189.484375 311.085938 190.875 C 350.253906 193.988281 379.460938 191.402344 402.785156 200.742188 Z M 402.785156 200.742188 " fill-opacity="1" fill-rule="nonzero"/><path fill="rgb(16.079712%, 16.079712%, 16.079712%)" d="M 380.25 747.160156 C 376.640625 750.535156 357.195312 764.28125 354.210938 772.785156 C 351.8125 779.636719 353.769531 788.140625 356.769531 790.539062 C 370.882812 801.867188 420.167969 799.175781 431.285156 781.527344 C 433.5625 777.925781 433.191406 750.769531 424.980469 754.46875 C 414.964844 758.976562 403.367188 739.546875 395.09375 739.183594 C 387.679688 738.84375 384.671875 743.03125 380.25 747.160156 Z M 380.25 747.160156 " fill-opacity="1" fill-rule="nonzero"/><path fill="rgb(76.858521%, 72.938538%, 69.40918%)" d="M 432.246094 772.605469 C 418.472656 792.34375 369.320312 798.144531 354.570312 785.148438 C 352.050781 782.941406 353.722656 795.054688 356.792969 797.875 C 370.265625 810.238281 417.140625 805.925781 432.089844 786.527344 C 435.183594 782.5 434.035156 770.042969 432.246094 772.605469 Z M 432.246094 772.605469 " fill-opacity="1" fill-rule="nonzero"/><path fill="rgb(30.979919%, 30.979919%, 30.979919%)" d="M 403.753906 763.628906 C 407.835938 766.277344 393.289062 774.324219 376.253906 772.9375 C 361.671875 771.777344 365.207031 763.1875 369.707031 760.925781 C 374.828125 758.355469 393.234375 756.824219 403.753906 763.628906 Z M 403.753906 763.628906 " fill-opacity="1" fill-rule="nonzero"/><path fill="rgb(16.079712%, 16.079712%, 16.079712%)" d="M 521.265625 747.160156 C 524.875 750.535156 544.328125 764.28125 547.304688 772.785156 C 549.703125 779.636719 547.746094 788.140625 544.746094 790.539062 C 530.632812 801.867188 481.347656 799.175781 470.222656 781.527344 C 467.953125 777.925781 468.308594 750.769531 476.535156 754.46875 C 486.542969 758.976562 498.148438 739.546875 506.40625 739.183594 C 513.835938 738.84375 516.84375 743.03125 521.265625 747.160156 Z M 521.265625 747.160156 " fill-opacity="1" fill-rule="nonzero"/><path fill="rgb(76.858521%, 72.938538%, 69.40918%)" d="M 469.269531 772.605469 C 483.042969 792.34375 532.179688 798.144531 546.945312 785.148438 C 549.464844 782.941406 547.785156 795.054688 544.722656 797.875 C 531.25 810.238281 484.375 805.925781 469.421875 786.527344 C 466.324219 782.5 467.464844 770.042969 469.269531 772.605469 Z M 469.269531 772.605469 " fill-opacity="1" fill-rule="nonzero"/><path fill="rgb(30.979919%, 30.979919%, 30.979919%)" d="M 497.761719 763.628906 C 493.679688 766.277344 508.21875 774.324219 525.253906 772.9375 C 539.84375 771.777344 536.300781 763.1875 531.800781 760.925781 C 526.6875 758.355469 508.28125 756.824219 497.761719 763.628906 Z M 497.761719 763.628906 " fill-opacity="1" fill-rule="nonzero"/></svg>